<svg xmlns="http://www.w3.org/2000/svg" xmlns:xlink="http://www.w3.org/1999/xlink" width="1100" height="424" viewBox="0 0 1100 424">
  <defs>
    <clipPath id="clip-anatomy">
      <rect width="1100" height="424"/>
    </clipPath>
  </defs>
  <g id="anatomy" clip-path="url(#clip-anatomy)">
    <g id="ik-logo-hor" transform="translate(112 59)">
      <path id="Path_1" data-name="Path 1" d="M0,0V159.977L69.259,200V40.023Z" fill="#beeb9f"/>
      <path id="Path_2" data-name="Path 2" d="M252.246,0l-34.63,19.983L148.3,59.949v79.989l69.316-39.966,34.63-19.983Z" transform="translate(-64.11)" fill="#beeb9f"/>
      <path id="Path_3" data-name="Path 3" d="M252.246,165.606l-34.63-19.983L148.3,105.6v79.989l69.316,40.023,34.63,19.983Z" transform="translate(-64.11 -45.651)" fill="#00a388"/>
      <path id="Path_4" data-name="Path 4" d="M148.3,105.7l69.316,39.966L148.3,185.689Z" transform="translate(-64.11 -45.694)" fill="#79bd8f"/>
      <path id="Path_5" data-name="Path 5" d="M0,0,69.259,40.023,0,79.989Z" fill="#79bd8f"/>
    </g>
    <path id="Path_35" data-name="Path 35" d="M5.568-44.8h10.3v29.184L37.248-44.8h9.728V0H36.736V-29.12L15.36,0H5.568ZM57.344-34.432h9.92v13.44H82.24v-13.44h9.984V0H82.24V-12.864H67.264V0h-9.92ZM143.968-4.7Q138.624-.064,128.7.64V12.416h-9.152V.64q-9.92-.7-15.264-5.28t-5.344-12.7q0-8,5.28-12.416t15.328-5.12V-47.488H128.7V-34.88q9.92.7,15.264,5.184t5.344,12.352Q149.312-9.344,143.968-4.7ZM111.232-10.24q2.624,2.5,8.32,3.136V-27.136q-5.7.576-8.32,2.976a8.771,8.771,0,0,0-2.624,6.816Q108.608-12.736,111.232-10.24Zm25.824,0q2.656-2.5,2.656-7.1a8.715,8.715,0,0,0-2.656-6.816q-2.656-2.4-8.352-2.976V-7.1Q134.4-7.744,137.056-10.24Zm25.408,8.48a16.89,16.89,0,0,1-6.752-6.3,17.37,17.37,0,0,1-2.432-9.152,17.37,17.37,0,0,1,2.432-9.152,16.89,16.89,0,0,1,6.752-6.3,20.647,20.647,0,0,1,9.76-2.272,20.457,20.457,0,0,1,9.728,2.272,16.943,16.943,0,0,1,6.72,6.3,17.37,17.37,0,0,1,2.432,9.152,17.37,17.37,0,0,1-2.432,9.152,16.943,16.943,0,0,1-6.72,6.3A20.457,20.457,0,0,1,172.224.512,20.647,20.647,0,0,1,162.464-1.76Zm16.064-8.512a9.662,9.662,0,0,0,2.464-6.944,9.662,9.662,0,0,0-2.464-6.944,8.316,8.316,0,0,0-6.3-2.592,8.419,8.419,0,0,0-6.336,2.592,9.589,9.589,0,0,0-2.5,6.944,9.589,9.589,0,0,0,2.5,6.944,8.419,8.419,0,0,0,6.336,2.592A8.316,8.316,0,0,0,178.528-10.272Zm48.448-22.464a15.855,15.855,0,0,1,6.176,6.208,18.742,18.742,0,0,1,2.24,9.312,18.742,18.742,0,0,1-2.24,9.312A15.855,15.855,0,0,1,226.976-1.7,17.547,17.547,0,0,1,218.24.512q-6.592,0-10.368-4.16V12.416h-9.984V-34.432h9.536v3.968q3.712-4.48,10.816-4.48A17.547,17.547,0,0,1,226.976-32.736Zm-4.16,22.464a9.662,9.662,0,0,0,2.464-6.944,9.662,9.662,0,0,0-2.464-6.944,8.316,8.316,0,0,0-6.3-2.592,8.316,8.316,0,0,0-6.3,2.592,9.662,9.662,0,0,0-2.464,6.944,9.662,9.662,0,0,0,2.464,6.944,8.316,8.316,0,0,0,6.3,2.592A8.316,8.316,0,0,0,222.816-10.272ZM275.968,0V-20.608l-10.3,17.28H261.44L251.392-20.672V0h-9.024V-34.432H252.8l11.008,19.9,11.712-19.9h9.344L284.992,0Zm44.224-31.136q4.288,3.808,4.288,11.488V0h-9.344V-4.288q-2.816,4.8-10.5,4.8a16.29,16.29,0,0,1-6.88-1.344,10.259,10.259,0,0,1-4.448-3.712,9.661,9.661,0,0,1-1.536-5.376,8.971,8.971,0,0,1,3.616-7.552q3.616-2.752,11.168-2.752H314.5a6.363,6.363,0,0,0-1.984-5.024q-1.984-1.76-5.952-1.76a17.379,17.379,0,0,0-5.408.864,14.308,14.308,0,0,0-4.512,2.336l-3.584-6.976a21.625,21.625,0,0,1,6.752-3.072,30.246,30.246,0,0,1,8.1-1.088Q315.9-34.944,320.192-31.136ZM311.68-7.392A6.479,6.479,0,0,0,314.5-10.88V-14.4h-6.848q-6.144,0-6.144,4.032a3.591,3.591,0,0,0,1.5,3.04,6.775,6.775,0,0,0,4.128,1.12A8.7,8.7,0,0,0,311.68-7.392Zm60.288-.8V7.552h-9.28V0h-29.5V-34.432h9.92v26.24h13.888v-26.24h9.984v26.24Zm6.272-26.24h9.92v20.48l16.768-20.48h9.152V0h-9.92V-20.48L387.456,0H378.24ZM430.048-1.76a16.89,16.89,0,0,1-6.752-6.3,17.37,17.37,0,0,1-2.432-9.152,17.37,17.37,0,0,1,2.432-9.152,16.89,16.89,0,0,1,6.752-6.3,20.647,20.647,0,0,1,9.76-2.272,20.457,20.457,0,0,1,9.728,2.272,16.943,16.943,0,0,1,6.72,6.3,17.37,17.37,0,0,1,2.432,9.152,17.37,17.37,0,0,1-2.432,9.152,16.943,16.943,0,0,1-6.72,6.3A20.457,20.457,0,0,1,439.808.512,20.647,20.647,0,0,1,430.048-1.76Zm16.064-8.512a9.662,9.662,0,0,0,2.464-6.944,9.662,9.662,0,0,0-2.464-6.944,8.316,8.316,0,0,0-6.3-2.592,8.419,8.419,0,0,0-6.336,2.592,9.589,9.589,0,0,0-2.5,6.944,9.589,9.589,0,0,0,2.5,6.944,8.419,8.419,0,0,0,6.336,2.592A8.316,8.316,0,0,0,446.112-10.272Zm19.424-24.16h9.92v13.44h14.976v-13.44h9.984V0h-9.984V-12.864H475.456V0h-9.92Zm44.416,0h9.92v13.44h14.976v-13.44h9.984V0h-9.984V-12.864H519.872V0h-9.92Zm70.08,3.3q4.288,3.808,4.288,11.488V0h-9.344V-4.288q-2.816,4.8-10.5,4.8A16.29,16.29,0,0,1,557.6-.832a10.259,10.259,0,0,1-4.448-3.712,9.661,9.661,0,0,1-1.536-5.376,8.971,8.971,0,0,1,3.616-7.552q3.616-2.752,11.168-2.752h7.936a6.363,6.363,0,0,0-1.984-5.024q-1.984-1.76-5.952-1.76a17.379,17.379,0,0,0-5.408.864,14.308,14.308,0,0,0-4.512,2.336L552.9-30.784a21.624,21.624,0,0,1,6.752-3.072,30.246,30.246,0,0,1,8.1-1.088Q575.744-34.944,580.032-31.136ZM571.52-7.392a6.479,6.479,0,0,0,2.816-3.488V-14.4h-6.848q-6.144,0-6.144,4.032a3.591,3.591,0,0,0,1.5,3.04,6.775,6.775,0,0,0,4.128,1.12A8.7,8.7,0,0,0,571.52-7.392Zm52.1-27.04V0h-8.9V-9.856h-7.36L600.832,0H590.208l7.872-11.264a11.768,11.768,0,0,1-5.472-4.064,10.812,10.812,0,0,1-1.888-6.432,11.034,11.034,0,0,1,4.384-9.376q4.384-3.3,12.064-3.3Zm-21.088,9.28A4.226,4.226,0,0,0,600.9-21.44a4.388,4.388,0,0,0,1.568,3.744,7.887,7.887,0,0,0,4.768,1.184h7.488V-26.3h-7.36A8.37,8.37,0,0,0,602.528-25.152Zm-582.56,88.1H14.784V76H4.8V41.568h9.984V54.944H20.16L29.5,41.568H40.128L28.1,58.08,40.96,76H29.184Zm58.5-21.376L62.912,78.112q-2.368,5.952-5.856,8.384a14.344,14.344,0,0,1-8.416,2.432,17.479,17.479,0,0,1-5.312-.832,11.728,11.728,0,0,1-4.288-2.3l3.648-7.1a8.572,8.572,0,0,0,2.656,1.6,8.278,8.278,0,0,0,2.976.576,5.279,5.279,0,0,0,3.328-.992,8.421,8.421,0,0,0,2.3-3.3l.128-.32L39.168,41.568h10.3l9.664,23.36,9.728-23.36Zm35.392,0V76h-9.984V49.76H92.992l-.32,6.08A62.336,62.336,0,0,1,91.392,67.1a15.49,15.49,0,0,1-3.328,7.04,8.17,8.17,0,0,1-6.4,2.56,21.44,21.44,0,0,1-5.184-.768l.512-8.192a13.522,13.522,0,0,0,1.472.128,3.8,3.8,0,0,0,3.36-1.632,9.9,9.9,0,0,0,1.5-4.16,67.064,67.064,0,0,0,.576-6.688l.512-13.824Zm38.528,14.048a10.328,10.328,0,0,1,3.584,8.416,10.667,10.667,0,0,1-4,8.864q-4,3.168-11.232,3.168L123.456,76V41.568h9.92V52.576h8.7Q148.8,52.64,152.384,55.616Zm-8.128,12.128a4.713,4.713,0,0,0,1.536-3.84,4.3,4.3,0,0,0-1.5-3.648,7.516,7.516,0,0,0-4.448-1.216l-6.464-.064V68.96h6.464A6.492,6.492,0,0,0,144.256,67.744ZM187.968,49.76H176.32V76H166.4V49.76H154.752V41.568h33.216ZM228.1,41.568,212.544,78.112q-2.368,5.952-5.856,8.384a14.344,14.344,0,0,1-8.416,2.432,17.479,17.479,0,0,1-5.312-.832,11.728,11.728,0,0,1-4.288-2.3l3.648-7.1a8.572,8.572,0,0,0,2.656,1.6,8.278,8.278,0,0,0,2.976.576,5.279,5.279,0,0,0,3.328-.992,8.421,8.421,0,0,0,2.3-3.3l.128-.32L188.8,41.568h10.3l9.664,23.36,9.728-23.36Zm33.824,1.7a15.855,15.855,0,0,1,6.176,6.208,18.742,18.742,0,0,1,2.24,9.312A18.742,18.742,0,0,1,268.1,68.1,15.855,15.855,0,0,1,261.92,74.3a17.547,17.547,0,0,1-8.736,2.208q-6.592,0-10.368-4.16V88.416h-9.984V41.568h9.536v3.968q3.712-4.48,10.816-4.48A17.547,17.547,0,0,1,261.92,43.264Zm-4.16,22.464a9.662,9.662,0,0,0,2.464-6.944,9.662,9.662,0,0,0-2.464-6.944,8.962,8.962,0,0,0-12.608,0,9.662,9.662,0,0,0-2.464,6.944,9.662,9.662,0,0,0,2.464,6.944,8.962,8.962,0,0,0,12.608,0ZM302.4,44.864q4.288,3.808,4.288,11.488V76h-9.344V71.712q-2.816,4.8-10.5,4.8a16.29,16.29,0,0,1-6.88-1.344,10.259,10.259,0,0,1-4.448-3.712,9.661,9.661,0,0,1-1.536-5.376,8.971,8.971,0,0,1,3.616-7.552q3.616-2.752,11.168-2.752H296.7a6.363,6.363,0,0,0-1.984-5.024q-1.984-1.76-5.952-1.76a17.379,17.379,0,0,0-5.408.864,14.308,14.308,0,0,0-4.512,2.336l-3.584-6.976a21.625,21.625,0,0,1,6.752-3.072,30.246,30.246,0,0,1,8.1-1.088Q298.112,41.056,302.4,44.864Zm-8.512,23.744A6.479,6.479,0,0,0,296.7,65.12V61.6h-6.848q-6.144,0-6.144,4.032a3.591,3.591,0,0,0,1.5,3.04,6.775,6.775,0,0,0,4.128,1.12A8.7,8.7,0,0,0,293.888,68.608Z" transform="translate(365 144)" fill="#111"/>
    <line id="Line_7" data-name="Line 7" x2="188" transform="translate(112.5 311.5)" fill="none" stroke="#00a388" stroke-width="2"/>
    <line id="Line_8" data-name="Line 8" x2="628" transform="translate(365.5 311.5)" fill="none" stroke="#00a388" stroke-width="2"/>
    <path id="Path_34" data-name="Path 34" d="M-25.452-10.944A5.694,5.694,0,0,1-24.03-7.056,5.868,5.868,0,0,1-25.4-3.2,8.685,8.685,0,0,1-29.034-.666a13.492,13.492,0,0,1-4.932.882,15.557,15.557,0,0,1-4.95-.81,13.378,13.378,0,0,1-4.374-2.43l.972-1.908a11.75,11.75,0,0,0,3.78,2.142,12.974,12.974,0,0,0,4.284.738,10.684,10.684,0,0,0,3.78-.648A6.543,6.543,0,0,0-27.72-4.554a4.274,4.274,0,0,0,1.026-2.862A3.863,3.863,0,0,0-28.422-10.8a8.506,8.506,0,0,0-4.86-1.188h-5.4v-2.16h5.256a6.742,6.742,0,0,0,4.158-1.134,3.732,3.732,0,0,0,1.494-3.15,4.009,4.009,0,0,0-1.908-3.51A8.422,8.422,0,0,0-34.47-23.22a13.248,13.248,0,0,0-3.636.522A13.384,13.384,0,0,0-41.6-21.132l-.9-2.2a15.54,15.54,0,0,1,8.1-2.232,12.782,12.782,0,0,1,4.68.828,7.865,7.865,0,0,1,3.366,2.376A5.636,5.636,0,0,1-25.11-18.72a5.549,5.549,0,0,1-1.116,3.474,6.005,6.005,0,0,1-3.132,2.07A7.377,7.377,0,0,1-25.452-10.944Zm7.434-7.992h2.556v8.388H-3.546v-8.388H-.99V0H-3.546V-8.352H-15.462V0h-2.556Zm36.5,1.71a7.165,7.165,0,0,1,1.98,5.49V0H18.018V-2.952a5.861,5.861,0,0,1-2.538,2.3A8.883,8.883,0,0,1,11.5.18a7.789,7.789,0,0,1-5.04-1.512,4.883,4.883,0,0,1-1.872-4A4.842,4.842,0,0,1,6.336-9.216q1.746-1.476,5.562-1.476H17.91v-1.152a4.853,4.853,0,0,0-1.368-3.726,5.649,5.649,0,0,0-4-1.278,10.158,10.158,0,0,0-3.456.594,8.709,8.709,0,0,0-2.844,1.638L5.094-16.524a10.215,10.215,0,0,1,3.456-1.89A13.455,13.455,0,0,1,12.8-19.08,8.016,8.016,0,0,1,18.486-17.226Zm-2.88,14.4a5.911,5.911,0,0,0,2.3-2.862v-3.1H11.97q-4.86,0-4.86,3.384A3.1,3.1,0,0,0,8.37-2.79a5.736,5.736,0,0,0,3.528.954A6.736,6.736,0,0,0,15.606-2.826Zm18.54-5.6h-4.32V0H27.27V-18.936h2.556v8.316h4.356l6.66-8.316h2.772l-7.452,9.18L44.154,0H41.13Z" transform="translate(206 357)" fill="#00a388"/>
    <path id="Path_33" data-name="Path 33" d="M-192.024-25.2V0h-30.888V-25.2h2.628V-2.3h11.52V-25.2h2.628V-2.3h11.484V-25.2Zm22.464,7.326a8.624,8.624,0,0,1,3.384,3.4,10.1,10.1,0,0,1,1.224,5,10.177,10.177,0,0,1-1.224,5.04,8.658,8.658,0,0,1-3.366,3.4A9.7,9.7,0,0,1-174.384.18a8.953,8.953,0,0,1-4.158-.954,7.88,7.88,0,0,1-3.042-2.79V6.984h-2.556v-25.92h2.448v3.744a7.873,7.873,0,0,1,3.042-2.88,8.922,8.922,0,0,1,4.266-1.008A9.725,9.725,0,0,1-169.56-17.874Zm-1.4,14.868a6.484,6.484,0,0,0,2.538-2.61,7.947,7.947,0,0,0,.918-3.852,7.843,7.843,0,0,0-.918-3.834,6.638,6.638,0,0,0-2.538-2.61,7.066,7.066,0,0,0-3.6-.936,7.038,7.038,0,0,0-3.618.936,6.676,6.676,0,0,0-2.52,2.61,7.843,7.843,0,0,0-.918,3.834,7.947,7.947,0,0,0,.918,3.852,6.519,6.519,0,0,0,2.52,2.61,7.145,7.145,0,0,0,3.618.918A7.174,7.174,0,0,0-170.964-3.006Zm11.52-15.93h2.556V-3.888l12.636-15.048h2.268V0h-2.556V-15.048L-157.14,0h-2.3Zm44.712,16.38q-2.916,2.52-8.244,2.736v6.8h-2.484V.216q-5.292-.216-8.19-2.754a8.779,8.779,0,0,1-2.9-6.966,8.573,8.573,0,0,1,2.9-6.876q2.9-2.484,8.19-2.7v-7.632h2.484v7.632q5.328.252,8.244,2.736a8.507,8.507,0,0,1,2.916,6.84A8.7,8.7,0,0,1-114.732-2.556ZM-131.85-4.212a10.42,10.42,0,0,0,6.39,2.16v-14.76a10.364,10.364,0,0,0-6.372,2.106,6.5,6.5,0,0,0-2.2,5.2A6.666,6.666,0,0,0-131.85-4.212Zm15.3.036A6.657,6.657,0,0,0-114.336-9.5a6.465,6.465,0,0,0-2.214-5.22,10.582,10.582,0,0,0-6.426-2.088v14.76A10.434,10.434,0,0,0-116.55-4.176Zm22.734-12.492h-7.164V0h-2.556V-16.668H-110.7v-2.268h16.884Zm5.724,15.606A9.058,9.058,0,0,1-91.548-4.5a9.8,9.8,0,0,1-1.26-4.968,9.8,9.8,0,0,1,1.26-4.968,8.929,8.929,0,0,1,3.456-3.42A9.956,9.956,0,0,1-83.16-19.08a9.956,9.956,0,0,1,4.932,1.224,8.8,8.8,0,0,1,3.438,3.42,9.913,9.913,0,0,1,1.242,4.968A9.913,9.913,0,0,1-74.79-4.5a8.93,8.93,0,0,1-3.438,3.438A9.842,9.842,0,0,1-83.16.18,9.842,9.842,0,0,1-88.092-1.062Zm8.55-1.944a6.4,6.4,0,0,0,2.5-2.61,8.075,8.075,0,0,0,.9-3.852,8.075,8.075,0,0,0-.9-3.852,6.4,6.4,0,0,0-2.5-2.61,7.145,7.145,0,0,0-3.618-.918,7.145,7.145,0,0,0-3.618.918,6.519,6.519,0,0,0-2.52,2.61,7.947,7.947,0,0,0-.918,3.852A7.947,7.947,0,0,0-89.3-5.616a6.519,6.519,0,0,0,2.52,2.61,7.145,7.145,0,0,0,3.618.918A7.145,7.145,0,0,0-79.542-3.006Zm27.378-2.142A4.429,4.429,0,0,1-54-1.332,9.293,9.293,0,0,1-59.472,0h-8.6V-18.936h8.352a8.87,8.87,0,0,1,5.076,1.26,4.105,4.105,0,0,1,1.836,3.6,4.207,4.207,0,0,1-.846,2.646,5.014,5.014,0,0,1-2.358,1.638Q-52.164-8.892-52.164-5.148Zm-13.428-5.364H-59.9a5.785,5.785,0,0,0,3.366-.828,2.769,2.769,0,0,0,1.17-2.412,2.678,2.678,0,0,0-1.17-2.376A5.99,5.99,0,0,0-59.9-16.92h-5.688Zm9.684,7.7a2.745,2.745,0,0,0,1.224-2.484,2.885,2.885,0,0,0-1.116-2.5,6.075,6.075,0,0,0-3.528-.81h-6.264v6.588h6.012A6.84,6.84,0,0,0-55.908-2.808Zm12.6,1.746A9.058,9.058,0,0,1-46.764-4.5a9.8,9.8,0,0,1-1.26-4.968,9.8,9.8,0,0,1,1.26-4.968,8.929,8.929,0,0,1,3.456-3.42,9.956,9.956,0,0,1,4.932-1.224,9.956,9.956,0,0,1,4.932,1.224,8.8,8.8,0,0,1,3.438,3.42,9.913,9.913,0,0,1,1.242,4.968A9.913,9.913,0,0,1-30.006-4.5a8.93,8.93,0,0,1-3.438,3.438A9.842,9.842,0,0,1-38.376.18,9.842,9.842,0,0,1-43.308-1.062Zm8.55-1.944a6.4,6.4,0,0,0,2.5-2.61,8.075,8.075,0,0,0,.9-3.852,8.075,8.075,0,0,0-.9-3.852,6.4,6.4,0,0,0-2.5-2.61,7.145,7.145,0,0,0-3.618-.918,7.145,7.145,0,0,0-3.618.918,6.519,6.519,0,0,0-2.52,2.61,7.947,7.947,0,0,0-.918,3.852,7.947,7.947,0,0,0,.918,3.852,6.519,6.519,0,0,0,2.52,2.61,7.145,7.145,0,0,0,3.618.918A7.145,7.145,0,0,0-34.758-3.006Zm28.026-5.67h-15.84A6.768,6.768,0,0,0-20.3-3.906,7.528,7.528,0,0,0-15.12-2.088a8.169,8.169,0,0,0,3.24-.63A7.078,7.078,0,0,0-9.324-4.572l1.44,1.656a8.109,8.109,0,0,1-3.15,2.3A10.654,10.654,0,0,1-15.192.18a10.513,10.513,0,0,1-5.166-1.242A8.954,8.954,0,0,1-23.868-4.5a9.8,9.8,0,0,1-1.26-4.968,10.148,10.148,0,0,1,1.206-4.968,8.733,8.733,0,0,1,3.312-3.42,9.247,9.247,0,0,1,4.734-1.224,9.15,9.15,0,0,1,4.716,1.224,8.677,8.677,0,0,1,3.276,3.4A10.244,10.244,0,0,1-6.7-9.468Zm-13.734-6.462a6.858,6.858,0,0,0-2.106,4.554H-9.144a6.858,6.858,0,0,0-2.106-4.554,6.485,6.485,0,0,0-4.626-1.746A6.439,6.439,0,0,0-20.466-15.138Zm28.854-3.8h2.556v8.388H22.86v-8.388h2.556V0H22.86V-8.352H10.944V0H8.388Zm36.5,1.71a7.165,7.165,0,0,1,1.98,5.49V0H44.424V-2.952a5.861,5.861,0,0,1-2.538,2.3A8.883,8.883,0,0,1,37.908.18a7.789,7.789,0,0,1-5.04-1.512,4.883,4.883,0,0,1-1.872-4,4.842,4.842,0,0,1,1.746-3.888q1.746-1.476,5.562-1.476h6.012v-1.152a4.853,4.853,0,0,0-1.368-3.726,5.649,5.649,0,0,0-4-1.278,10.158,10.158,0,0,0-3.456.594,8.709,8.709,0,0,0-2.844,1.638L31.5-16.524a10.215,10.215,0,0,1,3.456-1.89A13.455,13.455,0,0,1,39.2-19.08,8.016,8.016,0,0,1,44.892-17.226Zm-2.88,14.4a5.911,5.911,0,0,0,2.3-2.862v-3.1h-5.94q-4.86,0-4.86,3.384a3.1,3.1,0,0,0,1.26,2.61,5.736,5.736,0,0,0,3.528.954A6.736,6.736,0,0,0,42.012-2.826Zm25.956-16.11V0H65.412V-7.884a15.933,15.933,0,0,1-6.444,1.44A8.174,8.174,0,0,1,53.64-8.01a5.723,5.723,0,0,1-1.908-4.7v-6.228h2.556v6.084A3.886,3.886,0,0,0,55.656-9.63a5.883,5.883,0,0,0,3.78,1.1,15.523,15.523,0,0,0,5.976-1.4v-9ZM91.8-8.676H75.96a6.768,6.768,0,0,0,2.268,4.77,7.528,7.528,0,0,0,5.184,1.818,8.169,8.169,0,0,0,3.24-.63,7.078,7.078,0,0,0,2.556-1.854l1.44,1.656a8.109,8.109,0,0,1-3.15,2.3A10.653,10.653,0,0,1,83.34.18a10.513,10.513,0,0,1-5.166-1.242A8.954,8.954,0,0,1,74.664-4.5,9.8,9.8,0,0,1,73.4-9.468a10.148,10.148,0,0,1,1.206-4.968,8.733,8.733,0,0,1,3.312-3.42,9.247,9.247,0,0,1,4.734-1.224,9.15,9.15,0,0,1,4.716,1.224,8.677,8.677,0,0,1,3.276,3.4,10.244,10.244,0,0,1,1.188,4.986ZM78.066-15.138a6.858,6.858,0,0,0-2.106,4.554H89.388a6.858,6.858,0,0,0-2.106-4.554,6.485,6.485,0,0,0-4.626-1.746A6.439,6.439,0,0,0,78.066-15.138Zm34-2.736a8.624,8.624,0,0,1,3.384,3.4,10.1,10.1,0,0,1,1.224,5,10.177,10.177,0,0,1-1.224,5.04,8.658,8.658,0,0,1-3.366,3.4A9.7,9.7,0,0,1,107.244.18a8.953,8.953,0,0,1-4.158-.954,7.88,7.88,0,0,1-3.042-2.79V6.984H97.488v-25.92h2.448v3.744a7.873,7.873,0,0,1,3.042-2.88,8.922,8.922,0,0,1,4.266-1.008A9.725,9.725,0,0,1,112.068-17.874Zm-1.4,14.868a6.484,6.484,0,0,0,2.538-2.61,7.947,7.947,0,0,0,.918-3.852A7.843,7.843,0,0,0,113.2-13.3a6.638,6.638,0,0,0-2.538-2.61,7.066,7.066,0,0,0-3.6-.936,7.038,7.038,0,0,0-3.618.936,6.676,6.676,0,0,0-2.52,2.61,7.843,7.843,0,0,0-.918,3.834,7.947,7.947,0,0,0,.918,3.852,6.519,6.519,0,0,0,2.52,2.61,7.145,7.145,0,0,0,3.618.918A7.174,7.174,0,0,0,110.664-3.006Zm24.12-13.662H127.62V0h-2.556V-16.668H117.9v-2.268h16.884Zm15.912-.558a7.165,7.165,0,0,1,1.98,5.49V0h-2.448V-2.952a5.861,5.861,0,0,1-2.538,2.3,8.883,8.883,0,0,1-3.978.828,7.789,7.789,0,0,1-5.04-1.512,4.883,4.883,0,0,1-1.872-4,4.842,4.842,0,0,1,1.746-3.888q1.746-1.476,5.562-1.476h6.012v-1.152a4.853,4.853,0,0,0-1.368-3.726,5.649,5.649,0,0,0-4-1.278,10.158,10.158,0,0,0-3.456.594,8.709,8.709,0,0,0-2.844,1.638L137.3-16.524a10.215,10.215,0,0,1,3.456-1.89,13.455,13.455,0,0,1,4.248-.666A8.016,8.016,0,0,1,150.7-17.226Zm-2.88,14.4a5.911,5.911,0,0,0,2.3-2.862v-3.1h-5.94q-4.86,0-4.86,3.384a3.1,3.1,0,0,0,1.26,2.61,5.736,5.736,0,0,0,3.528.954A6.736,6.736,0,0,0,147.816-2.826Zm11.664-16.11h2.556v8.388h11.916v-8.388h2.556V0h-2.556V-8.352H162.036V0H159.48Zm24.3,0h2.556V-3.888l12.636-15.048h2.268V0h-2.556V-15.048L186.084,0h-2.3Zm41.328,10.26h-15.84a6.768,6.768,0,0,0,2.268,4.77,7.529,7.529,0,0,0,5.184,1.818,8.169,8.169,0,0,0,3.24-.63,7.078,7.078,0,0,0,2.556-1.854l1.44,1.656a8.109,8.109,0,0,1-3.15,2.3,10.653,10.653,0,0,1-4.158.792,10.513,10.513,0,0,1-5.166-1.242,8.954,8.954,0,0,1-3.51-3.438,9.8,9.8,0,0,1-1.26-4.968,10.148,10.148,0,0,1,1.206-4.968,8.733,8.733,0,0,1,3.312-3.42,9.247,9.247,0,0,1,4.734-1.224,9.15,9.15,0,0,1,4.716,1.224,8.677,8.677,0,0,1,3.276,3.4,10.244,10.244,0,0,1,1.188,4.986Zm-13.734-6.462a6.858,6.858,0,0,0-2.106,4.554H222.7a6.858,6.858,0,0,0-2.106-4.554,6.485,6.485,0,0,0-4.626-1.746A6.439,6.439,0,0,0,211.374-15.138Z" transform="translate(679 357)" fill="#00a388"/>
  </g>
</svg>
