<svg xmlns="http://www.w3.org/2000/svg" xmlns:xlink="http://www.w3.org/1999/xlink" width="1000" height="750" viewBox="0 0 1000 750">
  <defs>
    <clipPath id="clip-colorBrand">
      <rect width="1000" height="750"/>
    </clipPath>
  </defs>
  <g id="colorBrand" clip-path="url(#clip-colorBrand)">
    <rect width="1000" height="750" fill="#e4e4e4"/>
    <rect id="Rectangle_34" data-name="Rectangle 34" width="400" height="300" transform="translate(70 60)" fill="#f3f3f3"/>
    <rect id="Rectangle_51" data-name="Rectangle 51" width="400" height="300" transform="translate(70 410)" fill="#f3f3f3"/>
    <rect id="Rectangle_41" data-name="Rectangle 41" width="400" height="300" transform="translate(530 60)" fill="#f3f3f3"/>
    <rect id="Rectangle_47" data-name="Rectangle 47" width="400" height="300" transform="translate(530 410)" fill="#f3f3f3"/>
    <rect id="Rectangle_35" data-name="Rectangle 35" width="300" height="300" transform="translate(70 60)" fill="#fff"/>
    <rect id="Rectangle_53" data-name="Rectangle 53" width="300" height="300" transform="translate(70 410)" fill="#fff"/>
    <rect id="Rectangle_43" data-name="Rectangle 43" width="300" height="300" transform="translate(530 60)" fill="#fff"/>
    <rect id="Rectangle_48" data-name="Rectangle 48" width="300" height="300" transform="translate(530 410)" fill="#fff"/>
    <rect id="Rectangle_36" data-name="Rectangle 36" width="260" height="130" transform="translate(90 80)" fill="#f3f3f3"/>
    <rect id="Rectangle_54" data-name="Rectangle 54" width="260" height="130" transform="translate(90 430)" fill="#f3f3f3"/>
    <rect id="Rectangle_44" data-name="Rectangle 44" width="260" height="130" transform="translate(550 80)" fill="#f3f3f3"/>
    <rect id="Rectangle_52" data-name="Rectangle 52" width="260" height="130" transform="translate(550 430)" fill="#f3f3f3"/>
    <rect id="Rectangle_37" data-name="Rectangle 37" width="120" height="110" transform="translate(90 230)" fill="#f3f3f3"/>
    <rect id="Rectangle_58" data-name="Rectangle 58" width="120" height="110" transform="translate(90 580)" fill="#f3f3f3"/>
    <rect id="Rectangle_46" data-name="Rectangle 46" width="120" height="110" transform="translate(550 230)" fill="#f3f3f3"/>
    <rect id="Rectangle_49" data-name="Rectangle 49" width="120" height="110" transform="translate(550 580)" fill="#f3f3f3"/>
    <rect id="Rectangle_39" data-name="Rectangle 39" width="120" height="110" transform="translate(230 230)" fill="#f3f3f3"/>
    <rect id="Rectangle_55" data-name="Rectangle 55" width="120" height="110" transform="translate(230 580)" fill="#f3f3f3"/>
    <rect id="Rectangle_45" data-name="Rectangle 45" width="120" height="110" transform="translate(690 230)" fill="#f3f3f3"/>
    <rect id="Rectangle_50" data-name="Rectangle 50" width="120" height="110" transform="translate(690 580)" fill="#f3f3f3"/>
    <rect id="Rectangle_40" data-name="Rectangle 40" width="400" height="20" transform="translate(70 40)" fill="#79bd8f"/>
    <rect id="Rectangle_56" data-name="Rectangle 56" width="400" height="20" transform="translate(70 390)" fill="#8c4dc3"/>
    <rect id="Rectangle_42" data-name="Rectangle 42" width="400" height="20" transform="translate(530 40)" fill="#007bc2"/>
    <rect id="Rectangle_57" data-name="Rectangle 57" width="400" height="20" transform="translate(530 390)" fill="#dec53a"/>
  </g>
</svg>
