<svg xmlns="http://www.w3.org/2000/svg" xmlns:xlink="http://www.w3.org/1999/xlink" width="1100" height="424" viewBox="0 0 1100 424">
  <defs>
    <clipPath id="clip-ik-logo-hor">
      <rect width="1100" height="424"/>
    </clipPath>
  </defs>
  <g id="ik-logo-hor" clip-path="url(#clip-ik-logo-hor)">
    <rect width="1100" height="424" fill="#f9f9ff"/>
    <g id="ik-logo-hor-2" data-name="ik-logo-hor" transform="translate(112 112)">
      <path id="Path_1" data-name="Path 1" d="M0,0V159.977L69.259,200V40.023Z" fill="#beeb9f"/>
      <path id="Path_2" data-name="Path 2" d="M252.246,0l-34.63,19.983L148.3,59.949v79.989l69.316-39.966,34.63-19.983Z" transform="translate(-64.11)" fill="#beeb9f"/>
      <path id="Path_3" data-name="Path 3" d="M252.246,165.606l-34.63-19.983L148.3,105.6v79.989l69.316,40.023,34.63,19.983Z" transform="translate(-64.11 -45.651)" fill="#00a388"/>
      <path id="Path_4" data-name="Path 4" d="M148.3,105.7l69.316,39.966L148.3,185.689Z" transform="translate(-64.11 -45.694)" fill="#79bd8f"/>
      <path id="Path_5" data-name="Path 5" d="M0,0,69.259,40.023,0,79.989Z" fill="#79bd8f"/>
    </g>
    <path id="Path_39" data-name="Path 39" d="M5.568-44.8h10.3v29.184L37.248-44.8h9.728V0H36.736V-29.12L15.36,0H5.568ZM57.344-34.432h9.92v13.44H82.24v-13.44h9.984V0H82.24V-12.864H67.264V0h-9.92ZM143.968-4.7Q138.624-.064,128.7.64V12.416h-9.152V.64q-9.92-.7-15.264-5.28t-5.344-12.7q0-8,5.28-12.416t15.328-5.12V-47.488H128.7V-34.88q9.92.7,15.264,5.184t5.344,12.352Q149.312-9.344,143.968-4.7ZM111.232-10.24q2.624,2.5,8.32,3.136V-27.136q-5.7.576-8.32,2.976a8.771,8.771,0,0,0-2.624,6.816Q108.608-12.736,111.232-10.24Zm25.824,0q2.656-2.5,2.656-7.1a8.715,8.715,0,0,0-2.656-6.816q-2.656-2.4-8.352-2.976V-7.1Q134.4-7.744,137.056-10.24Zm25.408,8.48a16.89,16.89,0,0,1-6.752-6.3,17.37,17.37,0,0,1-2.432-9.152,17.37,17.37,0,0,1,2.432-9.152,16.89,16.89,0,0,1,6.752-6.3,20.647,20.647,0,0,1,9.76-2.272,20.457,20.457,0,0,1,9.728,2.272,16.943,16.943,0,0,1,6.72,6.3,17.37,17.37,0,0,1,2.432,9.152,17.37,17.37,0,0,1-2.432,9.152,16.943,16.943,0,0,1-6.72,6.3A20.457,20.457,0,0,1,172.224.512,20.647,20.647,0,0,1,162.464-1.76Zm16.064-8.512a9.662,9.662,0,0,0,2.464-6.944,9.662,9.662,0,0,0-2.464-6.944,8.316,8.316,0,0,0-6.3-2.592,8.419,8.419,0,0,0-6.336,2.592,9.589,9.589,0,0,0-2.5,6.944,9.589,9.589,0,0,0,2.5,6.944,8.419,8.419,0,0,0,6.336,2.592A8.316,8.316,0,0,0,178.528-10.272Zm48.448-22.464a15.855,15.855,0,0,1,6.176,6.208,18.742,18.742,0,0,1,2.24,9.312,18.742,18.742,0,0,1-2.24,9.312A15.855,15.855,0,0,1,226.976-1.7,17.547,17.547,0,0,1,218.24.512q-6.592,0-10.368-4.16V12.416h-9.984V-34.432h9.536v3.968q3.712-4.48,10.816-4.48A17.547,17.547,0,0,1,226.976-32.736Zm-4.16,22.464a9.662,9.662,0,0,0,2.464-6.944,9.662,9.662,0,0,0-2.464-6.944,8.316,8.316,0,0,0-6.3-2.592,8.316,8.316,0,0,0-6.3,2.592,9.662,9.662,0,0,0-2.464,6.944,9.662,9.662,0,0,0,2.464,6.944,8.316,8.316,0,0,0,6.3,2.592A8.316,8.316,0,0,0,222.816-10.272ZM275.968,0V-20.608l-10.3,17.28H261.44L251.392-20.672V0h-9.024V-34.432H252.8l11.008,19.9,11.712-19.9h9.344L284.992,0Zm44.224-31.136q4.288,3.808,4.288,11.488V0h-9.344V-4.288q-2.816,4.8-10.5,4.8a16.29,16.29,0,0,1-6.88-1.344,10.259,10.259,0,0,1-4.448-3.712,9.661,9.661,0,0,1-1.536-5.376,8.971,8.971,0,0,1,3.616-7.552q3.616-2.752,11.168-2.752H314.5a6.363,6.363,0,0,0-1.984-5.024q-1.984-1.76-5.952-1.76a17.379,17.379,0,0,0-5.408.864,14.308,14.308,0,0,0-4.512,2.336l-3.584-6.976a21.625,21.625,0,0,1,6.752-3.072,30.246,30.246,0,0,1,8.1-1.088Q315.9-34.944,320.192-31.136ZM311.68-7.392A6.479,6.479,0,0,0,314.5-10.88V-14.4h-6.848q-6.144,0-6.144,4.032a3.591,3.591,0,0,0,1.5,3.04,6.775,6.775,0,0,0,4.128,1.12A8.7,8.7,0,0,0,311.68-7.392Zm60.288-.8V7.552h-9.28V0h-29.5V-34.432h9.92v26.24h13.888v-26.24h9.984v26.24Zm6.272-26.24h9.92v20.48l16.768-20.48h9.152V0h-9.92V-20.48L387.456,0H378.24ZM430.048-1.76a16.89,16.89,0,0,1-6.752-6.3,17.37,17.37,0,0,1-2.432-9.152,17.37,17.37,0,0,1,2.432-9.152,16.89,16.89,0,0,1,6.752-6.3,20.647,20.647,0,0,1,9.76-2.272,20.457,20.457,0,0,1,9.728,2.272,16.943,16.943,0,0,1,6.72,6.3,17.37,17.37,0,0,1,2.432,9.152,17.37,17.37,0,0,1-2.432,9.152,16.943,16.943,0,0,1-6.72,6.3A20.457,20.457,0,0,1,439.808.512,20.647,20.647,0,0,1,430.048-1.76Zm16.064-8.512a9.662,9.662,0,0,0,2.464-6.944,9.662,9.662,0,0,0-2.464-6.944,8.316,8.316,0,0,0-6.3-2.592,8.419,8.419,0,0,0-6.336,2.592,9.589,9.589,0,0,0-2.5,6.944,9.589,9.589,0,0,0,2.5,6.944,8.419,8.419,0,0,0,6.336,2.592A8.316,8.316,0,0,0,446.112-10.272Zm19.424-24.16h9.92v13.44h14.976v-13.44h9.984V0h-9.984V-12.864H475.456V0h-9.92Zm44.416,0h9.92v13.44h14.976v-13.44h9.984V0h-9.984V-12.864H519.872V0h-9.92Zm70.08,3.3q4.288,3.808,4.288,11.488V0h-9.344V-4.288q-2.816,4.8-10.5,4.8A16.29,16.29,0,0,1,557.6-.832a10.259,10.259,0,0,1-4.448-3.712,9.661,9.661,0,0,1-1.536-5.376,8.971,8.971,0,0,1,3.616-7.552q3.616-2.752,11.168-2.752h7.936a6.363,6.363,0,0,0-1.984-5.024q-1.984-1.76-5.952-1.76a17.379,17.379,0,0,0-5.408.864,14.308,14.308,0,0,0-4.512,2.336L552.9-30.784a21.624,21.624,0,0,1,6.752-3.072,30.246,30.246,0,0,1,8.1-1.088Q575.744-34.944,580.032-31.136ZM571.52-7.392a6.479,6.479,0,0,0,2.816-3.488V-14.4h-6.848q-6.144,0-6.144,4.032a3.591,3.591,0,0,0,1.5,3.04,6.775,6.775,0,0,0,4.128,1.12A8.7,8.7,0,0,0,571.52-7.392Zm52.1-27.04V0h-8.9V-9.856h-7.36L600.832,0H590.208l7.872-11.264a11.768,11.768,0,0,1-5.472-4.064,10.812,10.812,0,0,1-1.888-6.432,11.034,11.034,0,0,1,4.384-9.376q4.384-3.3,12.064-3.3Zm-21.088,9.28A4.226,4.226,0,0,0,600.9-21.44a4.388,4.388,0,0,0,1.568,3.744,7.887,7.887,0,0,0,4.768,1.184h7.488V-26.3h-7.36A8.37,8.37,0,0,0,602.528-25.152Zm-582.56,88.1H14.784V76H4.8V41.568h9.984V54.944H20.16L29.5,41.568H40.128L28.1,58.08,40.96,76H29.184Zm58.5-21.376L62.912,78.112q-2.368,5.952-5.856,8.384a14.344,14.344,0,0,1-8.416,2.432,17.479,17.479,0,0,1-5.312-.832,11.728,11.728,0,0,1-4.288-2.3l3.648-7.1a8.572,8.572,0,0,0,2.656,1.6,8.278,8.278,0,0,0,2.976.576,5.279,5.279,0,0,0,3.328-.992,8.421,8.421,0,0,0,2.3-3.3l.128-.32L39.168,41.568h10.3l9.664,23.36,9.728-23.36Zm35.392,0V76h-9.984V49.76H92.992l-.32,6.08A62.336,62.336,0,0,1,91.392,67.1a15.49,15.49,0,0,1-3.328,7.04,8.17,8.17,0,0,1-6.4,2.56,21.44,21.44,0,0,1-5.184-.768l.512-8.192a13.522,13.522,0,0,0,1.472.128,3.8,3.8,0,0,0,3.36-1.632,9.9,9.9,0,0,0,1.5-4.16,67.064,67.064,0,0,0,.576-6.688l.512-13.824Zm38.528,14.048a10.328,10.328,0,0,1,3.584,8.416,10.667,10.667,0,0,1-4,8.864q-4,3.168-11.232,3.168L123.456,76V41.568h9.92V52.576h8.7Q148.8,52.64,152.384,55.616Zm-8.128,12.128a4.713,4.713,0,0,0,1.536-3.84,4.3,4.3,0,0,0-1.5-3.648,7.516,7.516,0,0,0-4.448-1.216l-6.464-.064V68.96h6.464A6.492,6.492,0,0,0,144.256,67.744ZM187.968,49.76H176.32V76H166.4V49.76H154.752V41.568h33.216ZM228.1,41.568,212.544,78.112q-2.368,5.952-5.856,8.384a14.344,14.344,0,0,1-8.416,2.432,17.479,17.479,0,0,1-5.312-.832,11.728,11.728,0,0,1-4.288-2.3l3.648-7.1a8.572,8.572,0,0,0,2.656,1.6,8.278,8.278,0,0,0,2.976.576,5.279,5.279,0,0,0,3.328-.992,8.421,8.421,0,0,0,2.3-3.3l.128-.32L188.8,41.568h10.3l9.664,23.36,9.728-23.36Zm33.824,1.7a15.855,15.855,0,0,1,6.176,6.208,18.742,18.742,0,0,1,2.24,9.312A18.742,18.742,0,0,1,268.1,68.1,15.855,15.855,0,0,1,261.92,74.3a17.547,17.547,0,0,1-8.736,2.208q-6.592,0-10.368-4.16V88.416h-9.984V41.568h9.536v3.968q3.712-4.48,10.816-4.48A17.547,17.547,0,0,1,261.92,43.264Zm-4.16,22.464a9.662,9.662,0,0,0,2.464-6.944,9.662,9.662,0,0,0-2.464-6.944,8.962,8.962,0,0,0-12.608,0,9.662,9.662,0,0,0-2.464,6.944,9.662,9.662,0,0,0,2.464,6.944,8.962,8.962,0,0,0,12.608,0ZM302.4,44.864q4.288,3.808,4.288,11.488V76h-9.344V71.712q-2.816,4.8-10.5,4.8a16.29,16.29,0,0,1-6.88-1.344,10.259,10.259,0,0,1-4.448-3.712,9.661,9.661,0,0,1-1.536-5.376,8.971,8.971,0,0,1,3.616-7.552q3.616-2.752,11.168-2.752H296.7a6.363,6.363,0,0,0-1.984-5.024q-1.984-1.76-5.952-1.76a17.379,17.379,0,0,0-5.408.864,14.308,14.308,0,0,0-4.512,2.336l-3.584-6.976a21.625,21.625,0,0,1,6.752-3.072,30.246,30.246,0,0,1,8.1-1.088Q298.112,41.056,302.4,44.864Zm-8.512,23.744A6.479,6.479,0,0,0,296.7,65.12V61.6h-6.848q-6.144,0-6.144,4.032a3.591,3.591,0,0,0,1.5,3.04,6.775,6.775,0,0,0,4.128,1.12A8.7,8.7,0,0,0,293.888,68.608Z" transform="translate(365 197)" fill="#111"/>
  </g>
</svg>
